<?xml version="1.0" encoding="UTF-8" standalone="no"?>
<svg
   id="type_compound_noBorder_dark"
   width="40"
   height="40"
   viewBox="0 0 40 40"
   version="1.1"
   xmlns="http://www.w3.org/2000/svg"
   xmlns:svg="http://www.w3.org/2000/svg">
  <defs
     id="defs16" />
  <rect
     id="Icon_Base"
     width="40"
     height="40"
     fill="none" />
  <path
     d="m 24.411142,1.0230921 c -1.353878,0.2246847 -2.892111,1.1119072 -3.450942,1.9818457 -0.201644,0.3111051 -0.547322,1.1925637 -0.858419,2.18925 -0.651024,2.0797877 -0.771996,2.7019952 -0.668296,3.4163813 0.126748,0.8008037 0.460903,1.3596377 1.451819,2.4081729 0.622203,0.656773 0.737429,0.841133 0.737429,1.16376 0,0.178596 -0.04032,0.265014 -0.18436,0.409044 -0.241972,0.236209 -0.472411,0.293821 -1.198332,0.293821 -0.651,0 -0.950585,0.06337 -1.584315,0.328386 -0.218926,0.09794 -0.662532,0.259253 -0.979402,0.362956 -0.316871,0.103692 -0.823851,0.288056 -1.123436,0.40328 -0.380232,0.155549 -0.754704,0.247731 -1.209843,0.316866 -0.760475,0.109448 -2.678943,0.478178 -3.767801,0.725909 -0.939086,0.213164 -1.037026,0.213164 -1.192582,0 -0.27653,-0.380239 -1.1695142,-0.67982 -1.9415236,-0.651016 -0.3514261,0.01146 -0.4666406,-0.01145 -0.7028628,-0.132489 -0.1555495,-0.08066 -0.357187,-0.144037 -0.4435966,-0.144037 -0.213166,0 -0.6855892,0.32839 -0.7950528,0.553074 -0.057609,0.126746 -0.1613062,0.207403 -0.3456766,0.276538 -0.3226197,0.126747 -0.5012179,0.368715 -0.5357856,0.731668 -0.023029,0.265015 -0.017272,0.282297 0.1382777,0.351434 0.092098,0.03457 0.1728371,0.0749 0.1843593,0.08066 0.00525,0 -0.02303,0.08065 -0.074816,0.17284 -0.1152131,0.224685 -0.1094211,0.380235 0.034594,0.564594 0.1613048,0.207401 0.4436058,0.201643 0.6740552,-0.01146 0.3053354,-0.276538 0.6452516,-0.426328 0.9333026,-0.403284 0.1958925,0.01728 0.23046,0.03457 0.1440356,0.06337 -0.2938134,0.115234 -0.4147997,0.207404 -0.6452394,0.489702 -0.2938255,0.357195 -0.3226318,0.57612 -0.103652,0.789282 0.259246,0.265014 0.6106841,0.167083 0.7835112,-0.224686 0.097935,-0.224684 0.1324907,-0.253492 0.4090495,-0.311102 0.1670621,-0.03457 0.5588312,-0.07491 0.8757006,-0.08643 0.5645936,-0.02304 0.5703546,-0.02304 1.3250677,-0.403285 l 0.754715,-0.380235 0.979403,-0.120991 c 1.4115,-0.172839 2.627095,-0.380238 3.226252,-0.547313 0.288064,-0.08065 0.737442,-0.195879 1.008222,-0.259251 0.587627,-0.132505 2.892098,-0.748956 2.949723,-0.783523 0.06918,-0.04609 0.06335,-0.0288 -0.18435,0.587641 -0.247744,0.599163 -0.472433,1.371163 -0.570365,1.953041 -0.126747,0.720148 -0.293836,2.540681 -0.293836,3.191696 0,0.725908 -0.05761,1.140715 -0.236199,1.734116 -0.311098,1.013967 -0.570355,3.306916 -0.570355,5.006465 0,1.083106 0.0053,1.140716 0.149792,1.474863 0.207407,0.483942 0.282292,0.766239 0.397527,1.555521 0.115221,0.760475 0.144019,1.676504 0.05761,1.820532 -0.07478,0.126748 -0.714384,0.789284 -1.538232,1.590086 -0.44938,0.437851 -0.71439,0.748958 -0.835374,0.979401 -0.420562,0.789283 -0.299576,1.273222 0.4148,1.607371 0.697112,0.328387 1.647709,0.04033 2.673194,-0.806566 0.610682,-0.512745 0.760475,-0.697102 0.92179,-1.157998 0.247735,-0.697103 0.351437,-1.42301 0.351437,-2.413934 0,-1.376923 -0.190133,-2.488832 -0.547321,-3.220501 l -0.195881,-0.397524 0.201643,-0.869937 c 0.109408,-0.48394 0.299585,-1.302027 0.426324,-1.826294 0.126759,-0.524268 0.265028,-1.146474 0.31687,-1.382682 0.04615,-0.236211 0.09793,-0.483941 0.115206,-0.547313 0.04615,-0.207404 0.265028,-0.161308 0.535808,0.103692 0.449367,0.432091 0.731659,0.858418 1.290491,1.941519 0.685579,1.336596 2.327517,4.234471 2.93821,5.185066 1.515191,2.362084 2.3448,3.767812 2.390892,4.050111 0.04032,0.265015 -0.236211,1.071579 -0.674056,1.941517 -0.420563,0.841134 -0.535798,1.238655 -0.483948,1.664981 0.05188,0.414807 0.195884,0.558836 0.616456,0.610686 0.495456,0.06338 0.864177,-0.01727 1.434533,-0.29958 0.725897,-0.362955 1.227139,-0.858414 1.549759,-1.532475 l 0.236199,-0.501222 -0.06323,-0.472417 c -0.08075,-0.553075 -0.466664,-1.584324 -0.841143,-2.23534 -0.132519,-0.236207 -0.414803,-0.771997 -0.622207,-1.181042 -0.45514,-0.916026 -1.077336,-1.99337 -1.595859,-2.765367 -0.495446,-0.743193 -0.50698,-0.760478 -0.881463,-1.843577 -0.737419,-2.120117 -2.010639,-5.196589 -2.413925,-5.824555 -0.161307,-0.253492 -0.18436,-0.345672 -0.230451,-0.92179 -0.02303,-0.357196 -0.109409,-0.887223 -0.195873,-1.20985 -0.201643,-0.748955 -0.241972,-1.595848 -0.115234,-2.281427 0.103665,-0.558835 0.144035,-0.656774 0.46665,-1.227133 0.247725,-0.443609 0.760476,-1.008206 0.904509,-1.008206 0.05188,0 0.115234,0.05761 0.138265,0.126746 0.01728,0.06912 0.489688,0.581883 1.042768,1.140715 0.553071,0.553074 1.215616,1.250176 1.4691,1.543998 0.495467,0.570358 1.278991,1.302026 2.362085,2.218055 0.737443,0.616449 1.100391,1.008207 1.342364,1.469101 0.236201,0.43209 0.512752,0.737431 0.944838,1.025493 0.541535,0.362952 0.973628,0.731669 0.979391,0.829608 0,0.04608 -0.03459,0.138266 -0.08075,0.195881 -0.207408,0.276538 -0.0052,0.72591 0.322629,0.72591 0.253496,0 0.679819,-0.322627 0.68558,-0.518508 0,-0.04609 0.115232,-0.14979 0.265007,-0.224687 0.144035,-0.0749 0.288064,-0.195879 0.322631,-0.259251 0.109504,-0.195882 0.109504,-1.394207 0.0053,-1.734117 -0.103665,-0.339909 -0.316859,-0.587638 -0.541546,-0.63373 -0.155567,-0.03457 -0.161326,-0.04609 -0.126748,-0.28806 0.02886,-0.230446 0.01727,-0.270775 -0.149792,-0.432087 -0.149791,-0.155549 -0.213166,-0.178596 -0.420573,-0.16708 -0.161305,0.0058 -0.328392,-0.02879 -0.478184,-0.103707 -0.126747,-0.06912 -0.380221,-0.201639 -0.564592,-0.299579 -0.184362,-0.09219 -0.45514,-0.190119 -0.604912,-0.213165 -0.149793,-0.02305 -0.345676,-0.09219 -0.432105,-0.149793 -0.109395,-0.08065 -0.224668,-0.109448 -0.357187,-0.09219 -0.190122,0.02305 -0.236213,-0.01727 -1.221366,-1.071578 -0.564595,-0.599164 -1.198332,-1.238654 -1.411488,-1.423013 -0.466664,-0.403282 -1.722595,-1.814773 -2.154681,-2.425458 -0.409048,-0.570357 -0.754725,-0.881463 -1.273226,-1.117669 -0.22469,-0.109448 -0.437857,-0.195881 -0.466664,-0.195881 -0.08636,0 -0.357187,-0.339909 -0.357187,-0.449371 0,-0.201641 0.22469,-0.449374 0.564602,-0.633729 0.190122,-0.103694 0.697105,-0.339912 1.129186,-0.524272 1.941606,-0.846864 3.232114,-1.780177 4.171192,-3.0361128 C 30.385263,7.9769016 30.771268,7.0493521 30.823109,6.1160379 30.857684,5.4592383 30.759642,5.0617177 30.367961,4.278196 29.503767,2.5555622 28.074996,1.3975666 26.381206,1.0518952 25.897271,0.95394302 24.912107,0.93667085 24.410877,1.0230887 Z"
     id="path4"
     style="fill:#56a6db;fill-opacity:1;stroke-width:0.00576115" />
</svg>
