<svg xmlns="http://www.w3.org/2000/svg" width="13" height="13" viewBox="-1.05 0 13 13"><path id="Path_4609" data-name="Path 4609" d="M462.331,122.553h4.7v-1.791l-.021-.259-.039-.238-.039-.22-.06-.22-.1-.2-.139-.2-.119-.2-.179-.16-.16-.179-.2-.119-.179-.14-.22-.1-.2-.078-.22-.041-.238-.039h-.458l-.259.039-.2.041-.22.078-.22.1-.179.14-.2.119-.16.179-.179.16-.119.2-.14.2-.1.2-.06.22-.039.22-.041.238-.018.259Zm7.623.876v5.555l-.06.158-.08.16-.119.119-.119.119-.16.08-.158.06-.181.021h-8.8l-.178-.021-.16-.06-.158-.08-.119-.119-.121-.119-.078-.16-.06-.158-.021-.2v-5.356l.021-.179.06-.16.078-.158.121-.14.119-.121.158-.078.16-.041h.478v-1.791l.021-.437.06-.4.08-.4.137-.38.181-.339.2-.357.238-.339.279-.318.318-.279.339-.24.339-.218.359-.181.339-.119.4-.1.4-.062.417-.018.419.018.4.062.378.1.359.119.359.181.339.218.339.24.3.279.3.318.238.339.2.357.178.339.121.38.1.4.06.4.021.437v1.791h.478l.158.041.16.078.119.121.119.14.08.158.06.16Z" transform="translate(-459.385 -116.582)" fill="#77878a" fill-rule="evenodd" /></svg>